/* XPM */
static char *noname[] = {
/* width height ncolors chars_per_pixel */
"108 98 13 1",
/* colors */
"` c #999999",
"a c #777777",
"b c #EEEEEE",
"c c #FFCC00",
"d c #CCCCCC",
"e c #AAAAAA",
"f c #888888",
"g c #CC3333",
"h c #666666",
"i c #FFFFFF",
"j c #DDDDDD",
"k c #BBBBBB",
"l c #FFFFCC",
/* pixels */
"iiiiiiiiiiiiiiiiiiiiiiiiiiiiiiiiiiiiiiiiiiiiiiiiiiiiiiiiiiiiiiiiiiiiiiiiiiiiiiiiiiiiiiiiiiiiiiiiiiiiiiiiiiii",
"iiiiiiiiiiiiiiiiiiiiiiiiiiiiiiiiiiiiiiiiiiiiiiiiiiiiiiiiiiiiiiiiiiiiiiiiiiiiiiiiiiiiiiiiiiiiiiiiiiiiiiiiiiii",
"iiiiiiiiiiiiiiiiiiiiiiiiiiiiiiiiiiiiiiiiiiiiiiiiiiiiiiiiiiiiiiiiiiiiiiiiiiiiiiiiiiiiiiiiiiiiiiiiiiiiiiiiiiii",
"iiiiiiiiiiiiiiiiiiiiiiiiiiiiiiiiiiiiiiiiiiiiiiiiiiiiiiiiiiiiiiiiiiiiiiiiiiiiiiiiiiiiiiiiiiiiiiiiiiiiiiiiiiii",
"iiiiiiiiiiiiiiiiiiiiiiiiiiiiccccccccccccccccccclliiiiiiiiilccccccccccccccccccciiiiiiiiiiiiiiiiiiiiiiiiiiiiii",
"iiiiiiiiiiiiiiiiiiiiiiiiiiiiccccccccccccccccliiiiiiiiiiiiiiiilcccccccccccccccciiiiiiiiiiiiiiiiiiiiiiiiiiiiii",
"iiiiiiiiiiiiiiiiiiiiiiiiiiiiccccccccccccccliiiiiiiiiiiiiiiiiiiiicccccccccccccciiiiiiiiiiiiiiiiiiiiiiiiiiiiii",
"iiiiiiiiiiiiiiiiiiiiiiiiiiiiccccccccccccliiiiiiiiiiiiiiiiiiiiiiiiicccccccccccciiiiiiiiiiiiiiiiiiiiiiiiiiiiii",
"iiiiiiiiiiiiiiiiiiiiiiiiiiiiccccccccccciiiiiiiiiiiiiiiiiiiiiiiiiiiilcccccccccciiiiiiiiiiiiiiiiiiiiiiiiiiiiii",
"iiiiiiiiiiiiiiiiiiiiiiiiiiiicccccccccliiiiiiiiiiiiiiiiiiiiiiiiiiiiiiiccccccccciiiiiiiiiiiiiiiiiiiiiiiiiiiiii",
"iiiiiiiiiiiiiiiiiiiiiiiiiiiiccccccccliiiiiiiiiiiiiiiiiiiiiiiiiiiiiiiiicccccccciiiiiiiiiiiiiiiiiiiiiiiiiiiiii",
"iiiiiiiiiiiiiiiiiiiiiiiiiiiicccccccliiiiiiiiiiiiiiiiiiiiiiiiiiiiiiiiiiiccccccciiiiiiiiiiiiiiiiiiiiiiiiiiiiii",
"iiiiiiiiiiiiiiiiiiiiiiiiiiiiccccccliiiiiiiiiiiiiiiiiiiiiiiiiiiiiiiiiiiiicccccciiiiiiiiiiiiiiiiiiiiiiiiiiiiii",
"iiiiiiiiiiiiiiiiiiiiiiiiiiiicccccliiiiiiiiiiiiiiiiiiiiiiiiiiiiiiiiiiiiiiiccccciiiiiiiiiiiiiiiiiiiiiiiiiiiiii",
"iiiiiiiiiiiiiiiiiiiiiiiiiiiiccccciiiiiiiiiiiiiiillcccccccliiiiiiiiiiiiiiiicccciiiiiiiiiiiiiiiiiiiiiiiiiiiiii",
"iiiiiiiiiiiiiiiiiiiiiiiiiiiicccciiiiiiiiiiiiiiccccccccccccccliiiiiiiiiiiiilccciiiiiiiiiiiiiiiiiiiiiiiiiiiiii",
"iiiiiiiiiiiiiiiiiiiiiiiiiiiicccliiiiiiiiiiiilccccccccccccccccciiiiiiiiiiiiiccciiiiiiiiiiiiiiiiiiiiiiiiiiiiii",
"iiiiiiiiiiiiiiiiiiiiiiiiiiiiccciiiiiiiiiiiilccccccccccccccccccciiiiiiiiiiiilcciiiiiiiiiiiiiiiiiiiiiiiiiiiiii",
"iiiiiiiiiiiiiiiiiiiiiiiiiiiiccliiiiiiiiiiilccccccccccccccccccccciiiiiiiiiiiicciiiiiiiiiiiiiiiiiiiiiiiiiiiiii",
"iiiiiiiiiiiiiiiiiiiiiiiiiiiicciiiiiiiiiiilccccccccccccccccccccccciiiiiiiiiiilciiiiiiiiiiiiiiiiiiiiiiiiiiiiii",
"iiiiiiiiiiiiiiiiiiiiiiiiiiiicciiiiiiiiiilccccccccccccccccccccccccciiiiiiiiiiiciiiiiiiiiiiiiiiiiiiiiiiiiiiiii",
"iiiiiiiiiiiiiiiiiiiiiiiiiiiiciiiiiiiiiiiccccccccccccccccccccccccccliiiiiiiiiiciiiiiiiiiiiiiiiiiiiiiiiiiiiiii",
"iiiiiiiiiiiiiiiiiiiiiiiiiiiiciiiiiiiiiilcccccccccccccccccccccccccccccccccccccciiiiiiiiiiiiiiiiiiiiiiiiiiiiii",
"iiiiiiiiiiiiiiiiiiiiiiiiiiiiciiiiiiiiiiccccccccccccccccccccccccccccccccccccccciiiiiiiiiiiiiiiiiiiiiiiiiiiiii",
"iiiiiiiiiiiiiiiiiiiiiiiiiiiiliiiiiiiiilccccccccccccccccccccccccccccccccccccccciiiiiiiiiiiiiiiiiiiiiiiiiiiiii",
"iiiiiiiiiiiiiiiiiiiiiiiiiiiiiiiiiiiiiilccccccccccccccccccccccccccccccccccccccciiiiiiiiiiiiiiiiiiiiiiiiiiiiii",
"iiiiiiiiiiiiiiiiiiiiiiiiiiiiiiiiiiiiiicccccccccccccccccccccccccccccccccccccccciiiiiiiiiiiiiiiiiiiiiiiiiiiiii",
"iiiiiiiiiiiiiiiiiiiiiiiiiiiiiiiiiiiiiicccccccccccccccccccccccccccccccccccccccciiiiiiiiiiiiiiiiiiiiiiiiiiiiii",
"iiiiiiiiiiiiiiiiiiiiiiiiiiiiiiiiiiiiiicccccccccccccccccccccccccccccccccccccccciiiiiiiiiiiiiiiiiiiiiiiiiiiiii",
"iiiiiiiiiiiiiiiiiiiiiiiiiiiiiiiiiiiiiicccccccccccccccccccccccccccccccccccccccciiiiiiiiiiiiiiiiiiiiiiiiiiiiii",
"iiiiiiiiiiiiiiiiiiiiiiiiiiiiiiiiiiiiiiccccccccccccccccggggggggggggggggggggggggiiiiiiiiiiiiiiiiiiiiiiiiiiiiii",
"iiiiiiiiiiiiiiiiiiiiiiiiiiiiiiiiiiiiiicccccccccccccccccgggggggggggggggggggggggiiiiiiiiiiiiiiiiiiiiiiiiiiiiii",
"iiiiiiiiiiiiiiiiiiiiiiiiiiiiiiiiiiiiiiccccccccccccccccccggggggggggggggggggggggiiiiiiiiiiiiiiiiiiiiiiiiiiiiii",
"iiiiiiiiiiiiiiiiiiiiiiiiiiiiliiiiiiiiilccccccccccccccccccgggggggggggggggggggggiiiiiiiiiiiiiiiiiiiiiiiiiiiiii",
"iiiiiiiiiiiiiiiiiiiiiiiiiiiiciiiiiiiiiicccccccccccccccccccggggggggggggggggggggiiiiiiiiiiiiiiiiiiiiiiiiiiiiii",
"iiiiiiiiiiiiiiiiiiiiiiiiiiiiciiiiiiiiiilcccccccccccccccccccgggggggggggggggggggiiiiiiiiiiiiiiiiiiiiiiiiiiiiii",
"iiiiiiiiiiiiiiiiiiiiiiiiiiiiciiiiiiiiiiiccccccccccccccccccccggggggggggggggggggiiiiiiiiiiiiiiiiiiiiiiiiiiiiii",
"iiiiiiiiiiiiiiiiiiiiiiiiiiiicciiiiiiiiiilccccccccccccccccccccgggggggggggggggggiiiiiiiiiiiiiiiiiiiiiiiiiiiiii",
"iiiiiiiiiiiiiiiiiiiiiiiiiiiicciiiiiiiiiiilccccccccccccccccccccggggggggggggggggiiiiiiiiiiiiiiiiiiiiiiiiiiiiii",
"iiiiiiiiiiiiiiiiiiiiiiiiiiiiccliiiiiiiiiiicccccccccccccccccccccgggggggggggggggiiiiiiiiiiiiiiiiiiiiiiiiiiiiii",
"iiiiiiiiiiiiiiiiiiiiiiiiiiiiccciiiiiiiiiiiicccccccccccccccccccclggggggggggggggiiiiiiiiiiiiiiiiiiiiiiiiiiiiii",
"iiiiiiiiiiiiiiiiiiiiiiiiiiiicccliiiiiiiiiiiilccccccccccccccccciiigggggggggggggiiiiiiiiiiiiiiiiiiiiiiiiiiiiii",
"iiiiiiiiiiiiiiiiiiiiiiiiiiiicccciiiiiiiiiiiiiiccccccccccccccliiiiiggggggggggggiiiiiiiiiiiiiiiiiiiiiiiiiiiiii",
"iiiiiiiiiiiiiiiiiiiiiiiiiiiiccccciiiiiiiiiiiiiiilcccccccccliiiiiiiigggggggggggiiiiiiiiiiiiiiiiiiiiiiiiiiiiii",
"iiiiiiiiiiiiiiiiiiiiiiiiiiiicccccliiiiiiiiiiiiiiiiilllliiiiiiiiiiiiiggggggggggiiiiiiiiiiiiiiiiiiiiiiiiiiiiii",
"iiiiiiiiiiiiiiiiiiiiiiiiiiiiccccccliiiiiiiiiiiiiiiiiiiiiiiiiiiiiiiiiigggggggggiiiiiiiiiiiiiiiiiiiiiiiiiiiiii",
"iiiiiiiiiiiiiiiiiiiiiiiiiiiiccccccciiiiiiiiiiiiiiiiiiiiiiiiiiiiiiiiiiiggggggggiiiiiiiiiiiiiiiiiiiiiiiiiiiiii",
"iiiiiiiiiiiiiiiiiiiiiiiiiiiicccccccciiiiiiiiiiiiiiiiiiiiiiiiiiiiiiiiiilgggggggiiiiiiiiiiiiiiiiiiiiiiiiiiiiii",
"iiiiiiiiiiiiiiiiiiiiiiiiiiiicccccccccliiiiiiiiiiiiiiiiiiiiiiiiiiiiiiicccggggggiiiiiiiiiiiiiiiiiiiiiiiiiiiiii",
"iiiiiiiiiiiiiiiiiiiiiiiiiiiiccccccccccliiiiiiiiiiiiiiiiiiiiiiiiiiiilcccccgggggiiiiiiiiiiiiiiiiiiiiiiiiiiiiii",
"iiiiiiiiiiiiiiiiiiiiiiiiiiiiccccccccccccliiiiiiiiiiiiiiiiiiiiiiiiilcccccccggggiiiiiiiiiiiiiiiiiiiiiiiiiiiiii",
"iiiiiiiiiiiiiiiiiiiiiiiiiiiiccccccccccccccliiiiiiiiiiiiiiiiiiiiilccccccccccgggiiiiiiiiiiiiiiiiiiiiiiiiiiiiii",
"iiiiiiiiiiiiiiiiiiiiiiiiiiiiccccccccccccccccliiiiiiiiiiiiiiiillcccccccccccccggiiiiiiiiiiiiiiiiiiiiiiiiiiiiii",
"iiiiiiiiiiiiiiiiiiiiiiiiiiiiccccccccccccccccccclliiiiiiiiilccccccccccccccccccgiiiiiiiiiiiiiiiiiiiiiiiiiiiiii",
"iiiiiiiiiiiiiiiiiiiiiiiiiiiiiiiiiiiiiiiiiiiiiiiiiiiiiiiiiiiiiiiiiiiiiiiiiiiiiiiiiiiiiiiiiiiiiiiiiiiiiiiiiiii",
"iiiiiiiiiiiiiiiiiiiiiiiiiiiiiiiiiiiiiiiiiiiiiiiiiiiiiiiiiiiiiiiiiiiiiiiiiiiiiiiiiiiiiiiiiiiiiiiiiiiiiiiiiiii",
"iiiiiiiiiiiiiiiiiiiiiiiiiiiiiiiiiiiiiiiiiiiiiiiiiiiiiiiiiiiiiiiiiiiiiiiiiiiiiiiiiiiiiiiiiiiiiiiiiiiiiiiiiiii",
"iiiiiiiiiiiiiiiiiiiiiiiiiiiiiiiiiiiiiiiiiiiiiiiiiiiiiiiiiiiiiiiiiiiiiiiiiiiiiiiiiiiiiiiiiiiiiiiiiiiiiiiiiiii",
"iiiiiiiiiiiiiiiiiiiiiiiiiiiiiiiiiiiiiiiiiiiiiiiiiiiiiiiiiiiiiiiiiiiiiiiiiiiiiiiiiiiiiiiiiiiiiiiiiiiiiiiiiiii",
"iiiiiiiiiiiiiiiiiiiiiiiiiiiiiiiiiiiiiiiiiiiiiiiiiiiiiiiiiiiiiiiiiiiiiiiiiiiiiiiiiiiiiiiiiiiiiiiiiiiiiiiiiiii",
"iiiiiiiiiiiiiiiiiiiiiiiiiiiiiiiiiiiiiiiiiiiiiiiiiiiiiiiiiiiiiiiiiiiiiiiiiiiiiiiiiiiiiiiiiiiiiiiiiiiiiiiiiiii",
"iiiiiiiiiiiiiiiiiiiiiiiiiiiiiiiiiiiiiiiiiiiiiiiiiiiiiiiiiiiiiiiiiiiiiiiiiiiiiiiiiiiiiiiiiiiiiiiiiiiiiiiiiiii",
"iiiiiiiiiiiiiiiiiiiiiiiiiiiiiiiiiiiiiiiiiiiiiiiiiiiiiiiiiiiiiiiiiiiiiiiiiiiiiiiiiiiiiiiiiiiiiiiiiiiiiiiiiiii",
"iiiiiiiiiiiiiiiiiiiiiiiiiiiiiiiiiiiiiiiiiiiiiiiiiiiiiiiiiiiiiiiiiiiiiiiiiiiiiiiiiiiiiiiiiiiiiiiiiiiiiiiiiiii",
"iiiiiiiiiiiiiiiiiiiiiiiiiiiiiiiiiiiiiiiiiiiiiiiiiiiiiiiiiiiiiiiiiiiiiiiiiiiiiiiiiiiiiiiiiiiiiiiiiiiiiiiiiiii",
"iiiiiiiiiiiiiiiiiiiiiiiiiiiiiiiiiiiiiiiiiiiiiiiiiiiiiiiiiiiiiiiiiiiiiiiiiiiiiiiiiiiiiiiiiiiiiiiiiiiiiiiiiiii",
"iiiiiiiiiiiiiiiiiiiiiiiiiiiiiiiiiiiiiiiiiiiiiiiiiiiiiiiiiiiiiiiiiiiiiiiiiiiiiiiiiiiiiiiiiiiiiiiiiiiiiiiiiiii",
"iiiiiiiiiiiiiiiiiiiiiiiiiiiiiiiiiiiiiiiiiiiiiiiiiiiiiiiiiiiiiiiiiiiiiiiiiiiiiiiiiiiiiiiiiiiiiiiiiiiiiiiiiiii",
"iiiiiijjiiiiiiiiiiiiiiiiiiiiiiiiiiiiiibbiiiiiiiiiiiiiiiiiiiiiiiiiiibjbiiiiiiiiiiiiiiiiiiiiiiiiiiiiiiiiiiiiii",
"iiiib`faadiiiiiiiiiiiiiiiiiiiiiiiiiiibffkiiiiiiiiiiiiiiiiiiiiiiiiieaaaeiiiiiiiiiiiiiiiiiiiiiiiiiiiiiiiiiiiii",
"iiibfhhhhadiiiiiiiiiiiiiiiiiiiiiiiiiijhheiiiiiiiiiiiiiiiiiiiiiiiieahhaheiiiiiiiiiiiiiiiiiiiiiiiiiiiiiiiiiiii",
"iiikha`efhfbiiiiiiiiiiiiiiiiiiiiiiiiijaaeiiiiiiiiiiiiiiiiiiiiiiijhh`efhadiiiiiiiiiiiiiiiiiiiiiiiiiiiiiiiiiii",
"iii`afiikaabiiiiiiiiiiiiiiiiiiiiiiiiibahkiiiiiiiiiiiiiiiiiiiiiiikahjijahdiiiiiiiiiiiiiiiiiiiiiiiiiiiiiiiiiii",
"iii`hfbiehabiiiiiiibbjbiiiiiiiiiiibbbdaheiiiiiiiiiijbbiiiiiiiiiidhhjijahkiiiiiiiiibbjiiiiiiiiiiibbbbbbiiiiii",
"iii`hfiikhhbiiiiiijfaafkiiiiiiiiijffffhhkiiiiiiiijfaafkbiiiiiiiikahjijhhdiiiiiiiidfaafkiiiiiiiidffffffkiiiii",
"iii`hfbijekbiiiiijaahhhhjiiiiiiibfhahhhaeiiiiiiibaahhhheiiiiiiiidhhjibekbiiiiiiijahhhhadiiiiiiidahhhhhadiiii",
"iii`afbiiiiiiiiiieha`efafiiiiiiijhhfe`ahkiiiiiiikha`efhfiiiiiiiikahjiiiiiiiiiiiiehf`eahfiiiiiiijhhfe`ahkiiii",
"iii`hfiiiiiiiiiiifhfiiehfbiiiiiijhakibaheiiiiiiieaabieaabiiiiiiidhhjiiiiiiiiiiiifafiifafbiiiiiidhakibahkiiii",
"iii`hfbiiiiiiiiiifafiiehfbiiiiiijhhdijahkiiiiiiiehabikhabiiiiiiikahjiiiiiiiiiiii`hfii`habiiiiiijhheijahkiiii",
"iii`hfiiiiiiiiiii`hfii`hfbiiiiiijhakijhaeiiiiiiiehabiehabiiiiiiidhhjibibiiiiiiiifh`iifhfbiiiiiidhakibahkiiii",
"iii`hfbiiiiiiiiiifhfiieafbiiiiiijhhdibahkiiiiiiikhfjikhfbiiiiiiikahbjfffjiiiiiii`afii`afbiiiiiidaheijahkiiii",
"iii`hfiiiiiiiiiiifafii`hfbiiiiiijhhdijaheiiiiiiiehabiehabiiiiiiidhhbdaahkiiiiiiifh`iifhfbiiiiiijhhkibahkiiii",
"iii`hfbiiiiiiiiiifhfiiehfbiiiiiijahkijahkiiiiiiiehakk`haiiiiiiiikhhjjfhhdiiiiiii`hakdfhfbiiiiiidahkijahkiiii",
"iii`hfiiiiiiiiiiifafiiehfbiiiiiijhhdijhaeiiiiiiieahhhhhabiiiiiiidhajijaakiiiiiii`hahhhhabiiiiiijhheibahkiiii",
"iii`afbiiiiiiiiiifhfii`afbiiiiiijhakibahkiiiiiiiehhaahaaiiiiiiiikahjijahdiiiiiiifahhahafbiiiiiidhakijahkiiii",
"iii`hfbiiiiiiiiii`hfii`hfbiiiiiijhhdijaheiiiiiiieaadjjjjiiiiiiiidhhjidahkiiiiiiifhfjjjdjiiiiiiijhhkibahkiiii",
"iii`hfiiiiiiiiiiifafbiehfbiiiiiijhakijahkiiiiiiiehabiiiiiiiiiiiikhhjijahdiiiiiii`afiiiiiiiiiiiidaheijahkiiii",
"iii`hfbid`ebiiiiifhfiiehfbiiiiiijhhdijhaeiiiiiiieaabiiiiiiiiiiiidhajidaakiiiiiiifhfiiiiiiiiiiiidhhkibahkiiii",
"iii`hfiikhhbiiiiifafii`afbiiiiiijhakibahkiiiiiiiehabibdjiiiiiiiikahjijahdiiiiiii`h`iijjjiiiiiiijhakijahkiiii",
"iii`hfbieaabiiiiifhfii`hfbiiiiiijhhdijhheiiiiiiiehabieaabiiiiiiikhhjijahkiiiiiiifafiifhabiiiiiidhhkibahkiiii",
"iiiehfiikhabiiiiifafbiehfbiiiiiijahkijahkiiiiiiikhfjiehabiiiiiiidhadidahdiiiiiii`hfbi`hfbiiiiiijhaeijahkiiii",
"iiikhafffhfiiiiiieha``ah`iiiiiiijhhf`fhaeiiiiiiidhafffhfiiiiiiiijahf`fhajiiiiiiieaa`fah`biiiiiijhheibahkiiii",
"iiib`hhahajiiiiiibfhhhhfjiiiiiiiifahhahheiiiiiiibfhhahadiiiiiiiiieahahaeiiiiiiiibfhhahajiiiiiiidhakijhhkiiii",
"iiiiieaa`jiiiiiiiibeaf`jiiiiiiiiibe`f``fdiiiiiiiiiefafjiiiiiiiiiiikfafdiiiiiiiiiijeaaebiiiiiiiijffdib``diiii",
"iiiiiiiiiiiiiiiiiiiiiiiiiiiiiiiiiiiiiiiiiiiiiiiiiiiiiiiiiiiiiiiiiiiiiiiiiiiiiiiiiiiiiiiiiiiiiiiiiiiiiiiiiiii",
"iiiiiiiiiiiiiiiiiiiiiiiiiiiiiiiiiiiiiiiiiiiiiiiiiiiiiiiiiiiiiiiiiiiiiiiiiiiiiiiiiiiiiiiiiiiiiiiiiiiiiiiiiiii",
"iiiiiiiiiiiiiiiiiiiiiiiiiiiiiiiiiiiiiiiiiiiiiiiiiiiiiiiiiiiiiiiiiiiiiiiiiiiiiiiiiiiiiiiiiiiiiiiiiiiiiiiiiiii",
"iiiiiiiiiiiiiiiiiiiiiiiiiiiiiiiiiiiiiiiiiiiiiiiiiiiiiiiiiiiiiiiiiiiiiiiiiiiiiiiiiiiiiiiiiiiiiiiiiiiiiiiiiiii"
};
